<svg width="830" height="231" viewBox="0 0 830 231" fill="none" xmlns="http://www.w3.org/2000/svg">
<g clip-path="url(#clip0_506_543)">
<path d="M231.688 86.7051L198.681 29.4666L148.331 58.5043V0.379883H82.2591V58.5043L31.9068 29.4666L-1.09766 86.7051L49.1684 115.691L-1.09766 144.68L31.9096 201.916L82.2591 172.878V230.999H148.331V172.878L198.681 201.916L231.688 144.68L181.422 115.691L231.688 86.7051Z" fill="#65AFCD"/>
<mask id="mask0_506_543" style="mask-type:luminance" maskUnits="userSpaceOnUse" x="-2" y="0" width="234" height="231">
<path d="M231.692 86.7056L198.684 29.467L148.335 58.5048V0.380371H82.263V58.5048L31.9107 29.467L-1.09375 86.7056L49.1723 115.692L-1.09375 144.68L31.9136 201.916L82.263 172.878V231H148.335V172.878L198.684 201.916L231.692 144.68L181.426 115.692L231.692 86.7056Z" fill="white"/>
</mask>
<g mask="url(#mask0_506_543)">
<path d="M120.935 86.5098C120.935 86.5098 139.612 80.987 145.253 69.9414C145.253 69.9414 176.034 92.3806 205.169 85.0945C205.169 85.0945 201.467 113.707 177.673 103.659C177.673 103.659 171.334 122.693 151.063 108.768C151.063 108.768 127.985 126.446 120.23 103.659" fill="#3F3F69"/>
<path d="M109.648 86.5095C109.648 86.5095 90.9713 80.9867 85.3306 69.9412C85.3306 69.9412 54.5525 92.3803 25.4141 85.0943C25.4141 85.0943 29.1161 113.706 52.9101 103.659C52.9101 103.659 59.2527 122.692 79.5173 108.768C79.5173 108.768 102.601 126.446 110.356 103.659" fill="#3F3F69"/>
<path d="M132.122 54.7485C132.122 64.0423 124.589 71.5757 115.292 71.5757C105.995 71.5757 98.459 64.0423 98.459 54.7485C98.459 45.4518 105.995 37.9126 115.292 37.9126C124.589 37.9126 132.122 45.4518 132.122 54.7485Z" fill="#3F3F69"/>
<path d="M106.543 56.2556L115.296 324.698L124.049 56.2556H106.543Z" fill="#3F3F69"/>
<path d="M103.485 194.296C104.483 193.805 105.498 193.37 106.522 192.947C105.225 192.677 103.916 192.421 102.59 192.159C97.8846 191.233 93.0694 190.275 88.3204 188.871C81.0573 193.413 76.8461 198.076 75.4913 203.041C74.5421 206.527 75.0369 210.042 76.9238 213.2C79.6593 217.788 84.0862 220.742 88.9445 222.86C92.6436 220.484 96.593 218.602 100.2 217.153C101.989 216.436 103.793 215.809 105.611 215.24C101.621 214.262 96.9295 212.671 95.0225 208.759C91.7778 202.097 98.3533 196.813 103.485 194.296Z" fill="white"/>
<path d="M169.986 139.791C166.813 128.023 159.608 123.254 154.111 121.332C143.747 117.694 131.738 121.439 126.532 125.262C123.753 127.295 123.158 131.19 125.191 133.963C127.222 136.739 131.12 137.337 133.89 135.3C135.958 133.79 143.779 130.905 149.995 133.083C153.924 134.461 156.533 137.717 157.965 143.035C159.222 147.692 158.29 155.018 155.935 159.043C153.582 163.058 149.793 166.59 144.973 169.245C139.067 172.502 130.855 174.331 124.866 175.66C124.481 175.746 124.087 175.835 123.701 175.922C129.152 177.688 134.594 179.862 139.878 182.762C140.592 183.15 141.285 183.547 141.958 183.944C143.019 183.596 144.072 183.234 145.111 182.825C153.887 179.405 161.869 173.554 166.678 165.331C170.725 158.424 172.12 147.689 169.986 139.791Z" fill="white"/>
<path d="M140.208 227.974C137.283 229.084 134.288 229.956 131.398 230.744C128.708 231.477 125.791 232.182 122.279 232.953C125.613 234.866 128.087 237.613 128.087 241.683C128.087 245.883 126.03 248.48 123.099 250.206C128.018 251.417 132.025 252.907 135.62 254.88C137.461 255.884 139.109 256.914 140.582 257.964C143.74 256.057 146.488 253.632 148.4 250.427C150.287 247.266 150.779 243.751 149.83 240.271C148.469 235.263 144.698 231.198 140.208 227.974Z" fill="white"/>
<path d="M59.6969 139.791C62.8725 128.023 70.078 123.254 75.572 121.332C85.9359 117.694 97.9451 121.439 103.157 125.262C105.927 127.295 106.528 131.19 104.501 133.963C102.461 136.739 98.5664 137.337 95.7964 135.3C93.7282 133.79 85.9071 130.905 79.6939 133.083C75.7618 134.461 73.1558 137.717 71.7204 143.035C70.4663 147.692 71.3925 155.019 73.7455 159.043C76.1013 163.058 79.8925 166.59 84.7134 169.245C90.6188 172.502 98.8253 174.331 104.817 175.66C115.644 178.076 127.104 180.909 137.715 186.729C147.245 191.958 152.635 197.288 154.2 203.044C155.146 206.53 154.654 210.045 152.767 213.203C148.096 221.033 138.503 224.128 130.219 226.38C127.06 227.238 123.868 227.977 120.666 228.67C113.967 230.12 101.607 232.573 101.607 241.683C101.607 251.872 113.722 252.654 121.118 254.377C125.424 255.381 129.572 256.718 133.455 258.847C140.111 262.497 143.876 266.225 144.969 270.243C145.628 272.674 145.283 275.133 143.965 277.334C140.286 283.507 126.223 288.236 118.302 290.778L118.31 290.721C115.161 291.869 110.501 293.425 110.015 297.317C109.6 300.601 111.887 303.838 113.872 306.239C118.086 311.328 123.813 315.326 129.865 317.935C133.023 319.29 134.479 322.946 133.13 326.107C132.117 328.466 129.816 329.881 127.403 329.881C126.583 329.881 125.749 329.714 124.955 329.369C123.825 328.894 97.318 317.299 97.7868 297.279C98.0198 287.295 104.673 282.86 110.947 280.222C114.024 278.781 122.159 276.014 121.647 271.112C121.014 265.003 110.161 265.259 106.025 264.206C97.1282 261.93 86.3299 258.861 81.2932 250.43C79.4063 247.269 78.9116 243.754 79.8608 240.274C82.4209 230.856 93.524 224.724 101.894 221.364C108.858 218.571 116.213 217.095 123.491 215.389C127.601 214.423 132.67 212.873 134.672 208.765C137.913 202.103 131.338 196.819 126.212 194.302C113.176 187.905 98.0285 188.072 84.5753 182.831C75.7964 179.411 67.8171 173.56 63.0048 165.336C58.9547 158.424 57.5683 147.689 59.6969 139.791Z" fill="white"/>
<path d="M151.385 128.78C153.511 135.14 148.362 142.593 139.885 145.42C131.406 148.256 122.811 145.403 120.685 139.043C118.562 132.689 123.708 125.233 132.185 122.397C140.665 119.567 149.263 122.423 151.385 128.78Z" fill="white"/>
<path d="M78.3929 128.78C76.2672 135.14 81.4189 142.593 89.8958 145.42C98.3698 148.256 106.968 145.403 109.09 139.043C111.216 132.689 106.07 125.233 97.5874 122.397C89.1134 119.567 80.5185 122.423 78.3929 128.78Z" fill="white"/>
</g>
<path d="M309.295 131H283.229V46.5314H310.45C318.644 46.5314 325.655 48.2225 331.485 51.6045C337.314 54.959 341.782 59.7846 344.889 66.0813C347.996 72.3504 349.55 79.8569 349.55 88.6007C349.55 97.3996 347.982 104.975 344.848 111.326C341.713 117.651 337.149 122.517 331.155 125.927C325.16 129.309 317.874 131 309.295 131ZM293.457 121.926H308.635C315.619 121.926 321.407 120.579 325.999 117.884C330.591 115.19 334.014 111.354 336.269 106.377C338.524 101.4 339.651 95.4748 339.651 88.6007C339.651 81.7817 338.537 75.9112 336.31 70.9894C334.083 66.04 330.756 62.2456 326.329 59.6059C321.902 56.9388 316.389 55.6052 309.79 55.6052H293.457V121.926ZM366.707 131V46.5314H417.685V55.6052H376.936V84.1463H415.046V93.2201H376.936V121.926H418.345V131H366.707ZM436.122 131V46.5314H446.35V84.1463H491.389V46.5314H501.618V131H491.389V93.2201H446.35V131H436.122Z" fill="white"/>
<path d="M287.106 203H276.975V170.172H287.555C290.739 170.172 293.464 170.829 295.73 172.143C297.995 173.447 299.732 175.323 300.939 177.77C302.147 180.206 302.751 183.124 302.751 186.522C302.751 189.941 302.141 192.885 300.923 195.354C299.705 197.812 297.931 199.703 295.601 201.028C293.272 202.343 290.44 203 287.106 203ZM280.951 199.474H286.849C289.564 199.474 291.813 198.95 293.598 197.903C295.382 196.855 296.713 195.365 297.589 193.43C298.465 191.496 298.904 189.193 298.904 186.522C298.904 183.872 298.471 181.59 297.605 179.677C296.74 177.754 295.447 176.279 293.726 175.253C292.006 174.217 289.863 173.698 287.298 173.698H280.951V199.474ZM319.229 203.513C316.856 203.513 314.81 202.989 313.09 201.942C311.38 200.884 310.06 199.409 309.13 197.518C308.211 195.616 307.752 193.404 307.752 190.882C307.752 188.36 308.211 186.137 309.13 184.214C310.06 182.279 311.353 180.773 313.009 179.693C314.676 178.603 316.621 178.058 318.844 178.058C320.126 178.058 321.393 178.272 322.643 178.699C323.893 179.127 325.031 179.821 326.057 180.783C327.083 181.734 327.901 182.995 328.51 184.566C329.119 186.137 329.424 188.071 329.424 190.369V191.972H310.445V188.702H325.576C325.576 187.313 325.299 186.073 324.743 184.983C324.198 183.893 323.418 183.033 322.403 182.402C321.398 181.772 320.212 181.456 318.844 181.456C317.337 181.456 316.034 181.83 314.933 182.579C313.843 183.316 313.004 184.278 312.416 185.464C311.829 186.65 311.535 187.922 311.535 189.279V191.459C311.535 193.318 311.855 194.894 312.496 196.187C313.148 197.47 314.051 198.448 315.205 199.121C316.36 199.783 317.701 200.115 319.229 200.115C320.223 200.115 321.12 199.976 321.922 199.698C322.734 199.409 323.434 198.982 324.022 198.416C324.609 197.839 325.064 197.123 325.384 196.268L329.039 197.294C328.654 198.533 328.008 199.623 327.099 200.564C326.191 201.493 325.069 202.22 323.733 202.744C322.397 203.256 320.896 203.513 319.229 203.513ZM345.18 203.513C342.872 203.513 340.885 202.968 339.218 201.878C337.55 200.788 336.268 199.287 335.37 197.374C334.473 195.461 334.024 193.275 334.024 190.818C334.024 188.317 334.483 186.11 335.403 184.197C336.332 182.274 337.625 180.773 339.282 179.693C340.949 178.603 342.894 178.058 345.116 178.058C346.848 178.058 348.408 178.379 349.797 179.02C351.186 179.661 352.324 180.559 353.211 181.713C354.098 182.867 354.648 184.214 354.862 185.752H351.079C350.791 184.63 350.15 183.636 349.156 182.771C348.173 181.895 346.848 181.456 345.18 181.456C343.706 181.456 342.413 181.841 341.301 182.611C340.201 183.369 339.34 184.443 338.721 185.832C338.111 187.211 337.807 188.83 337.807 190.689C337.807 192.592 338.106 194.248 338.705 195.659C339.314 197.069 340.169 198.164 341.269 198.945C342.381 199.725 343.684 200.115 345.18 200.115C346.164 200.115 347.056 199.944 347.857 199.602C348.659 199.26 349.337 198.768 349.893 198.127C350.449 197.486 350.844 196.716 351.079 195.819H354.862C354.648 197.272 354.12 198.581 353.275 199.746C352.442 200.9 351.336 201.819 349.957 202.503C348.589 203.176 346.997 203.513 345.18 203.513ZM370.715 203.513C368.343 203.513 366.297 202.989 364.576 201.942C362.866 200.884 361.546 199.409 360.617 197.518C359.698 195.616 359.238 193.404 359.238 190.882C359.238 188.36 359.698 186.137 360.617 184.214C361.546 182.279 362.84 180.773 364.496 179.693C366.163 178.603 368.108 178.058 370.331 178.058C371.613 178.058 372.879 178.272 374.13 178.699C375.38 179.127 376.518 179.821 377.544 180.783C378.57 181.734 379.387 182.995 379.996 184.566C380.605 186.137 380.91 188.071 380.91 190.369V191.972H361.931V188.702H377.063C377.063 187.313 376.785 186.073 376.229 184.983C375.684 183.893 374.904 183.033 373.889 182.402C372.885 181.772 371.698 181.456 370.331 181.456C368.824 181.456 367.52 181.83 366.419 182.579C365.329 183.316 364.491 184.278 363.903 185.464C363.315 186.65 363.021 187.922 363.021 189.279V191.459C363.021 193.318 363.342 194.894 363.983 196.187C364.635 197.47 365.538 198.448 366.692 199.121C367.846 199.783 369.187 200.115 370.715 200.115C371.709 200.115 372.607 199.976 373.408 199.698C374.22 199.409 374.92 198.982 375.508 198.416C376.096 197.839 376.55 197.123 376.871 196.268L380.525 197.294C380.141 198.533 379.494 199.623 378.586 200.564C377.677 201.493 376.555 202.22 375.22 202.744C373.884 203.256 372.382 203.513 370.715 203.513ZM390.448 188.189V203H386.665V178.379H390.319V182.226H390.64C391.217 180.976 392.093 179.971 393.269 179.212C394.444 178.443 395.962 178.058 397.821 178.058C399.488 178.058 400.947 178.4 402.197 179.084C403.447 179.757 404.42 180.783 405.114 182.162C405.809 183.53 406.156 185.261 406.156 187.355V203H402.373V187.612C402.373 185.678 401.871 184.171 400.867 183.091C399.862 182.001 398.484 181.456 396.731 181.456C395.523 181.456 394.444 181.718 393.493 182.242C392.553 182.766 391.81 183.53 391.265 184.534C390.72 185.539 390.448 186.757 390.448 188.189ZM423.777 178.379V181.585H411.017V178.379H423.777ZM414.736 172.48H418.519V195.947C418.519 197.016 418.674 197.817 418.984 198.351C419.304 198.875 419.711 199.228 420.202 199.409C420.704 199.58 421.233 199.666 421.789 199.666C422.206 199.666 422.548 199.645 422.815 199.602C423.082 199.548 423.296 199.506 423.456 199.474L424.226 202.872C423.969 202.968 423.611 203.064 423.152 203.16C422.692 203.267 422.11 203.321 421.404 203.321C420.336 203.321 419.288 203.091 418.263 202.631C417.247 202.172 416.403 201.472 415.73 200.531C415.067 199.591 414.736 198.405 414.736 196.973V172.48ZM429.467 203V178.379H433.122V182.098H433.378C433.827 180.879 434.639 179.891 435.815 179.132C436.99 178.373 438.315 177.994 439.79 177.994C440.068 177.994 440.415 177.999 440.832 178.01C441.249 178.021 441.564 178.037 441.778 178.058V181.905C441.649 181.873 441.356 181.825 440.896 181.761C440.447 181.686 439.972 181.649 439.469 181.649C438.273 181.649 437.204 181.9 436.264 182.402C435.334 182.894 434.597 183.578 434.052 184.454C433.517 185.32 433.25 186.308 433.25 187.419V203H429.467ZM453.507 203.577C451.947 203.577 450.531 203.283 449.259 202.695C447.988 202.097 446.978 201.237 446.23 200.115C445.482 198.982 445.108 197.614 445.108 196.011C445.108 194.601 445.386 193.457 445.941 192.581C446.497 191.694 447.24 190.999 448.169 190.497C449.099 189.995 450.125 189.621 451.247 189.375C452.38 189.119 453.518 188.915 454.661 188.766C456.157 188.574 457.37 188.429 458.3 188.333C459.24 188.226 459.924 188.05 460.352 187.804C460.79 187.558 461.009 187.131 461.009 186.522V186.394C461.009 184.812 460.576 183.583 459.711 182.707C458.856 181.83 457.557 181.392 455.815 181.392C454.009 181.392 452.594 181.788 451.568 182.579C450.542 183.369 449.82 184.214 449.404 185.111L445.813 183.829C446.454 182.333 447.309 181.168 448.378 180.334C449.457 179.49 450.633 178.902 451.904 178.571C453.187 178.229 454.448 178.058 455.687 178.058C456.478 178.058 457.386 178.154 458.412 178.347C459.449 178.528 460.448 178.908 461.41 179.485C462.382 180.062 463.189 180.933 463.83 182.098C464.471 183.262 464.792 184.823 464.792 186.778V203H461.009V199.666H460.817C460.56 200.2 460.133 200.772 459.534 201.381C458.936 201.99 458.14 202.508 457.146 202.936C456.152 203.363 454.939 203.577 453.507 203.577ZM454.084 200.179C455.58 200.179 456.841 199.885 457.867 199.297C458.904 198.709 459.684 197.951 460.208 197.021C460.742 196.091 461.009 195.114 461.009 194.088V190.625C460.849 190.818 460.496 190.994 459.951 191.154C459.417 191.304 458.797 191.437 458.092 191.555C457.397 191.662 456.718 191.758 456.056 191.844C455.404 191.918 454.875 191.982 454.469 192.036C453.486 192.164 452.567 192.372 451.712 192.661C450.868 192.939 450.184 193.361 449.66 193.927C449.147 194.483 448.891 195.242 448.891 196.204C448.891 197.518 449.377 198.512 450.349 199.185C451.333 199.848 452.578 200.179 454.084 200.179ZM475.48 170.172V203H471.697V170.172H475.48ZM482.408 203V178.379H486.191V203H482.408ZM484.332 174.275C483.594 174.275 482.959 174.024 482.424 173.522C481.901 173.02 481.639 172.416 481.639 171.711C481.639 171.005 481.901 170.402 482.424 169.899C482.959 169.397 483.594 169.146 484.332 169.146C485.069 169.146 485.7 169.397 486.223 169.899C486.758 170.402 487.025 171.005 487.025 171.711C487.025 172.416 486.758 173.02 486.223 173.522C485.7 174.024 485.069 174.275 484.332 174.275ZM492.415 203V200.115L506.392 182.162V181.905H492.863V178.379H511.265V181.392L497.672 199.217V199.474H511.714V203H492.415ZM527.158 203.513C524.786 203.513 522.74 202.989 521.019 201.942C519.309 200.884 517.99 199.409 517.06 197.518C516.141 195.616 515.681 193.404 515.681 190.882C515.681 188.36 516.141 186.137 517.06 184.214C517.99 182.279 519.283 180.773 520.939 179.693C522.606 178.603 524.551 178.058 526.774 178.058C528.056 178.058 529.322 178.272 530.573 178.699C531.823 179.127 532.961 179.821 533.987 180.783C535.013 181.734 535.83 182.995 536.439 184.566C537.049 186.137 537.353 188.071 537.353 190.369V191.972H518.374V188.702H533.506C533.506 187.313 533.228 186.073 532.672 184.983C532.127 183.893 531.347 183.033 530.332 182.402C529.328 181.772 528.142 181.456 526.774 181.456C525.267 181.456 523.963 181.83 522.862 182.579C521.772 183.316 520.934 184.278 520.346 185.464C519.758 186.65 519.464 187.922 519.464 189.279V191.459C519.464 193.318 519.785 194.894 520.426 196.187C521.078 197.47 521.981 198.448 523.135 199.121C524.289 199.783 525.63 200.115 527.158 200.115C528.152 200.115 529.05 199.976 529.851 199.698C530.663 199.409 531.363 198.982 531.951 198.416C532.539 197.839 532.993 197.123 533.314 196.268L536.968 197.294C536.584 198.533 535.937 199.623 535.029 200.564C534.12 201.493 532.998 202.22 531.663 202.744C530.327 203.256 528.825 203.513 527.158 203.513ZM552.405 203.513C550.353 203.513 548.542 202.995 546.971 201.958C545.4 200.911 544.171 199.436 543.284 197.534C542.397 195.621 541.954 193.361 541.954 190.754C541.954 188.167 542.397 185.923 543.284 184.021C544.171 182.119 545.405 180.65 546.987 179.613C548.568 178.577 550.396 178.058 552.469 178.058C554.072 178.058 555.338 178.325 556.268 178.86C557.208 179.383 557.924 179.982 558.416 180.655C558.918 181.318 559.308 181.863 559.586 182.29H559.906V170.172H563.689V203H560.035V199.217H559.586C559.308 199.666 558.913 200.232 558.4 200.916C557.887 201.589 557.155 202.193 556.204 202.727C555.253 203.251 553.986 203.513 552.405 203.513ZM552.918 200.115C554.435 200.115 555.717 199.719 556.765 198.929C557.812 198.127 558.608 197.021 559.153 195.61C559.698 194.189 559.971 192.549 559.971 190.689C559.971 188.851 559.703 187.243 559.169 185.865C558.635 184.475 557.844 183.396 556.797 182.627C555.75 181.847 554.456 181.456 552.918 181.456C551.315 181.456 549.979 181.868 548.91 182.691C547.852 183.503 547.056 184.609 546.522 186.009C545.998 187.398 545.736 188.958 545.736 190.689C545.736 192.442 546.004 194.034 546.538 195.466C547.083 196.887 547.884 198.02 548.942 198.864C550.011 199.698 551.336 200.115 552.918 200.115ZM584.351 203V170.172H588.327V184.791H605.831V170.172H609.806V203H605.831V188.317H588.327V203H584.351ZM627.575 203.513C625.202 203.513 623.156 202.989 621.435 201.942C619.726 200.884 618.406 199.409 617.476 197.518C616.557 195.616 616.098 193.404 616.098 190.882C616.098 188.36 616.557 186.137 617.476 184.214C618.406 182.279 619.699 180.773 621.355 179.693C623.022 178.603 624.967 178.058 627.19 178.058C628.472 178.058 629.739 178.272 630.989 178.699C632.239 179.127 633.377 179.821 634.403 180.783C635.429 181.734 636.247 182.995 636.856 184.566C637.465 186.137 637.769 188.071 637.769 190.369V191.972H618.791V188.702H633.922C633.922 187.313 633.644 186.073 633.089 184.983C632.544 183.893 631.764 183.033 630.748 182.402C629.744 181.772 628.558 181.456 627.19 181.456C625.683 181.456 624.379 181.83 623.279 182.579C622.189 183.316 621.35 184.278 620.762 185.464C620.174 186.65 619.881 187.922 619.881 189.279V191.459C619.881 193.318 620.201 194.894 620.842 196.187C621.494 197.47 622.397 198.448 623.551 199.121C624.705 199.783 626.046 200.115 627.575 200.115C628.568 200.115 629.466 199.976 630.268 199.698C631.08 199.409 631.78 198.982 632.367 198.416C632.955 197.839 633.409 197.123 633.73 196.268L637.385 197.294C637 198.533 636.353 199.623 635.445 200.564C634.537 201.493 633.415 202.22 632.079 202.744C630.743 203.256 629.242 203.513 627.575 203.513ZM650.769 203.577C649.209 203.577 647.793 203.283 646.521 202.695C645.25 202.097 644.24 201.237 643.492 200.115C642.744 198.982 642.37 197.614 642.37 196.011C642.37 194.601 642.648 193.457 643.203 192.581C643.759 191.694 644.502 190.999 645.431 190.497C646.361 189.995 647.387 189.621 648.509 189.375C649.642 189.119 650.78 188.915 651.923 188.766C653.419 188.574 654.632 188.429 655.562 188.333C656.502 188.226 657.186 188.05 657.614 187.804C658.052 187.558 658.271 187.131 658.271 186.522V186.394C658.271 184.812 657.838 183.583 656.973 182.707C656.118 181.83 654.819 181.392 653.077 181.392C651.271 181.392 649.856 181.788 648.83 182.579C647.804 183.369 647.082 184.214 646.666 185.111L643.075 183.829C643.716 182.333 644.571 181.168 645.64 180.334C646.719 179.49 647.895 178.902 649.166 178.571C650.449 178.229 651.71 178.058 652.949 178.058C653.74 178.058 654.648 178.154 655.674 178.347C656.711 178.528 657.71 178.908 658.672 179.485C659.644 180.062 660.451 180.933 661.092 182.098C661.733 183.262 662.054 184.823 662.054 186.778V203H658.271V199.666H658.079C657.822 200.2 657.395 200.772 656.796 201.381C656.198 201.99 655.402 202.508 654.408 202.936C653.414 203.363 652.201 203.577 650.769 203.577ZM651.346 200.179C652.842 200.179 654.103 199.885 655.129 199.297C656.166 198.709 656.946 197.951 657.469 197.021C658.004 196.091 658.271 195.114 658.271 194.088V190.625C658.111 190.818 657.758 190.994 657.213 191.154C656.679 191.304 656.059 191.437 655.354 191.555C654.659 191.662 653.98 191.758 653.318 191.844C652.666 191.918 652.137 191.982 651.731 192.036C650.748 192.164 649.829 192.372 648.974 192.661C648.13 192.939 647.446 193.361 646.922 193.927C646.409 194.483 646.153 195.242 646.153 196.204C646.153 197.518 646.639 198.512 647.611 199.185C648.595 199.848 649.839 200.179 651.346 200.179ZM672.742 170.172V203H668.959V170.172H672.742ZM690.378 178.379V181.585H677.618V178.379H690.378ZM681.337 172.48H685.12V195.947C685.12 197.016 685.275 197.817 685.585 198.351C685.906 198.875 686.312 199.228 686.803 199.409C687.306 199.58 687.835 199.666 688.39 199.666C688.807 199.666 689.149 199.645 689.416 199.602C689.683 199.548 689.897 199.506 690.057 199.474L690.827 202.872C690.57 202.968 690.212 203.064 689.753 203.16C689.293 203.267 688.711 203.321 688.006 203.321C686.937 203.321 685.89 203.091 684.864 202.631C683.849 202.172 683.004 201.472 682.331 200.531C681.669 199.591 681.337 198.405 681.337 196.973V172.48ZM700.38 188.189V203H696.597V170.172H700.38V182.226H700.701C701.278 180.954 702.143 179.944 703.298 179.196C704.462 178.438 706.012 178.058 707.946 178.058C709.624 178.058 711.093 178.395 712.354 179.068C713.615 179.731 714.593 180.751 715.288 182.13C715.993 183.498 716.346 185.239 716.346 187.355V203H712.563V187.612C712.563 185.656 712.055 184.144 711.04 183.075C710.035 181.996 708.641 181.456 706.856 181.456C705.617 181.456 704.505 181.718 703.522 182.242C702.55 182.766 701.78 183.53 701.214 184.534C700.658 185.539 700.38 186.757 700.38 188.189ZM733.269 203.513C730.96 203.513 728.973 202.968 727.306 201.878C725.639 200.788 724.356 199.287 723.459 197.374C722.561 195.461 722.112 193.275 722.112 190.818C722.112 188.317 722.572 186.11 723.491 184.197C724.42 182.274 725.713 180.773 727.37 179.693C729.037 178.603 730.982 178.058 733.204 178.058C734.936 178.058 736.496 178.379 737.885 179.02C739.274 179.661 740.412 180.559 741.299 181.713C742.186 182.867 742.737 184.214 742.95 185.752H739.167C738.879 184.63 738.238 183.636 737.244 182.771C736.261 181.895 734.936 181.456 733.269 181.456C731.794 181.456 730.501 181.841 729.389 182.611C728.289 183.369 727.429 184.443 726.809 185.832C726.2 187.211 725.895 188.83 725.895 190.689C725.895 192.592 726.194 194.248 726.793 195.659C727.402 197.069 728.257 198.164 729.357 198.945C730.469 199.725 731.772 200.115 733.269 200.115C734.252 200.115 735.144 199.944 735.945 199.602C736.747 199.26 737.426 198.768 737.981 198.127C738.537 197.486 738.932 196.716 739.167 195.819H742.95C742.737 197.272 742.208 198.581 741.363 199.746C740.53 200.9 739.424 201.819 738.045 202.503C736.677 203.176 735.085 203.513 733.269 203.513ZM755.726 203.577C754.166 203.577 752.75 203.283 751.478 202.695C750.206 202.097 749.196 201.237 748.448 200.115C747.7 198.982 747.326 197.614 747.326 196.011C747.326 194.601 747.604 193.457 748.16 192.581C748.716 191.694 749.458 190.999 750.388 190.497C751.318 189.995 752.344 189.621 753.466 189.375C754.598 189.119 755.736 188.915 756.88 188.766C758.376 188.574 759.589 188.429 760.519 188.333C761.459 188.226 762.143 188.05 762.57 187.804C763.008 187.558 763.228 187.131 763.228 186.522V186.394C763.228 184.812 762.795 183.583 761.929 182.707C761.074 181.83 759.776 181.392 758.034 181.392C756.228 181.392 754.812 181.788 753.786 182.579C752.76 183.369 752.039 184.214 751.622 185.111L748.032 183.829C748.673 182.333 749.528 181.168 750.596 180.334C751.676 179.49 752.851 178.902 754.123 178.571C755.405 178.229 756.666 178.058 757.906 178.058C758.697 178.058 759.605 178.154 760.631 178.347C761.667 178.528 762.667 178.908 763.628 179.485C764.601 180.062 765.408 180.933 766.049 182.098C766.69 183.262 767.01 184.823 767.01 186.778V203H763.228V199.666H763.035C762.779 200.2 762.351 200.772 761.753 201.381C761.154 201.99 760.358 202.508 759.364 202.936C758.371 203.363 757.158 203.577 755.726 203.577ZM756.303 200.179C757.799 200.179 759.06 199.885 760.086 199.297C761.122 198.709 761.902 197.951 762.426 197.021C762.96 196.091 763.228 195.114 763.228 194.088V190.625C763.067 190.818 762.715 190.994 762.17 191.154C761.635 191.304 761.015 191.437 760.31 191.555C759.616 191.662 758.937 191.758 758.274 191.844C757.623 191.918 757.094 191.982 756.688 192.036C755.704 192.164 754.785 192.372 753.93 192.661C753.086 192.939 752.402 193.361 751.879 193.927C751.366 194.483 751.109 195.242 751.109 196.204C751.109 197.518 751.596 198.512 752.568 199.185C753.551 199.848 754.796 200.179 756.303 200.179ZM773.915 203V178.379H777.57V182.098H777.826C778.275 180.879 779.087 179.891 780.263 179.132C781.438 178.373 782.763 177.994 784.238 177.994C784.516 177.994 784.863 177.999 785.28 178.01C785.697 178.021 786.012 178.037 786.226 178.058V181.905C786.098 181.873 785.804 181.825 785.344 181.761C784.895 181.686 784.42 181.649 783.918 181.649C782.721 181.649 781.652 181.9 780.712 182.402C779.782 182.894 779.045 183.578 778.5 184.454C777.965 185.32 777.698 186.308 777.698 187.419V203H773.915ZM800.284 203.513C797.911 203.513 795.865 202.989 794.144 201.942C792.434 200.884 791.115 199.409 790.185 197.518C789.266 195.616 788.806 193.404 788.806 190.882C788.806 188.36 789.266 186.137 790.185 184.214C791.115 182.279 792.408 180.773 794.064 179.693C795.731 178.603 797.676 178.058 799.899 178.058C801.181 178.058 802.447 178.272 803.698 178.699C804.948 179.127 806.086 179.821 807.112 180.783C808.138 181.734 808.955 182.995 809.565 184.566C810.174 186.137 810.478 188.071 810.478 190.369V191.972H791.499V188.702H806.631C806.631 187.313 806.353 186.073 805.798 184.983C805.253 183.893 804.473 183.033 803.457 182.402C802.453 181.772 801.267 181.456 799.899 181.456C798.392 181.456 797.088 181.83 795.988 182.579C794.898 183.316 794.059 184.278 793.471 185.464C792.883 186.65 792.589 187.922 792.589 189.279V191.459C792.589 193.318 792.91 194.894 793.551 196.187C794.203 197.47 795.106 198.448 796.26 199.121C797.414 199.783 798.755 200.115 800.284 200.115C801.277 200.115 802.175 199.976 802.976 199.698C803.789 199.409 804.489 198.982 805.076 198.416C805.664 197.839 806.118 197.123 806.439 196.268L810.094 197.294C809.709 198.533 809.062 199.623 808.154 200.564C807.246 201.493 806.124 202.22 804.788 202.744C803.452 203.256 801.951 203.513 800.284 203.513Z" fill="white"/>
</g>
<defs>
<clipPath id="clip0_506_543">
<rect width="830" height="231" fill="white"/>
</clipPath>
</defs>
</svg>
