<svg width="231" height="231" viewBox="0 0 231 231" fill="none" xmlns="http://www.w3.org/2000/svg">
<g clip-path="url(#clip0_504_736)">
<path d="M231.688 86.7051L198.681 29.4666L148.331 58.5043V0.379883H82.2591V58.5043L31.9068 29.4666L-1.09766 86.7051L49.1684 115.691L-1.09766 144.68L31.9096 201.916L82.2591 172.878V230.999H148.331V172.878L198.681 201.916L231.688 144.68L181.422 115.691L231.688 86.7051Z" fill="#65AFCD"/>
<mask id="mask0_504_736" style="mask-type:luminance" maskUnits="userSpaceOnUse" x="-2" y="0" width="234" height="231">
<path d="M231.692 86.7056L198.684 29.467L148.335 58.5048V0.380371H82.263V58.5048L31.9107 29.467L-1.09375 86.7056L49.1723 115.692L-1.09375 144.68L31.9136 201.916L82.263 172.878V231H148.335V172.878L198.684 201.916L231.692 144.68L181.426 115.692L231.692 86.7056Z" fill="white"/>
</mask>
<g mask="url(#mask0_504_736)">
<path d="M120.935 86.5098C120.935 86.5098 139.612 80.987 145.253 69.9414C145.253 69.9414 176.034 92.3806 205.169 85.0945C205.169 85.0945 201.467 113.707 177.673 103.659C177.673 103.659 171.334 122.693 151.063 108.768C151.063 108.768 127.985 126.446 120.23 103.659" fill="#3F3F69"/>
<path d="M109.648 86.5095C109.648 86.5095 90.9713 80.9867 85.3306 69.9412C85.3306 69.9412 54.5525 92.3803 25.4141 85.0943C25.4141 85.0943 29.1161 113.706 52.9101 103.659C52.9101 103.659 59.2527 122.692 79.5173 108.768C79.5173 108.768 102.601 126.446 110.356 103.659" fill="#3F3F69"/>
<path d="M132.122 54.7485C132.122 64.0423 124.589 71.5757 115.292 71.5757C105.995 71.5757 98.459 64.0423 98.459 54.7485C98.459 45.4518 105.995 37.9126 115.292 37.9126C124.589 37.9126 132.122 45.4518 132.122 54.7485Z" fill="#3F3F69"/>
<path d="M106.543 56.2556L115.296 324.698L124.049 56.2556H106.543Z" fill="#3F3F69"/>
<path d="M103.485 194.296C104.483 193.805 105.498 193.37 106.522 192.947C105.225 192.677 103.916 192.421 102.59 192.159C97.8846 191.233 93.0694 190.275 88.3204 188.871C81.0573 193.413 76.8461 198.076 75.4913 203.041C74.5421 206.527 75.0369 210.042 76.9238 213.2C79.6593 217.788 84.0862 220.742 88.9445 222.86C92.6436 220.484 96.593 218.602 100.2 217.153C101.989 216.436 103.793 215.809 105.611 215.24C101.621 214.262 96.9295 212.671 95.0225 208.759C91.7778 202.097 98.3533 196.813 103.485 194.296Z" fill="white"/>
<path d="M169.986 139.791C166.813 128.023 159.608 123.254 154.111 121.332C143.747 117.694 131.738 121.439 126.532 125.262C123.753 127.295 123.158 131.19 125.191 133.963C127.222 136.739 131.12 137.337 133.89 135.3C135.958 133.79 143.779 130.905 149.995 133.083C153.924 134.461 156.533 137.717 157.965 143.035C159.222 147.692 158.29 155.018 155.935 159.043C153.582 163.058 149.793 166.59 144.973 169.245C139.067 172.502 130.855 174.331 124.866 175.66C124.481 175.746 124.087 175.835 123.701 175.922C129.152 177.688 134.594 179.862 139.878 182.762C140.592 183.15 141.285 183.547 141.958 183.944C143.019 183.596 144.072 183.234 145.111 182.825C153.887 179.405 161.869 173.554 166.678 165.331C170.725 158.424 172.12 147.689 169.986 139.791Z" fill="white"/>
<path d="M140.208 227.974C137.283 229.084 134.288 229.956 131.398 230.744C128.708 231.477 125.791 232.182 122.279 232.953C125.613 234.866 128.087 237.613 128.087 241.683C128.087 245.883 126.03 248.48 123.099 250.206C128.018 251.417 132.025 252.907 135.62 254.88C137.461 255.884 139.109 256.914 140.582 257.964C143.74 256.057 146.488 253.632 148.4 250.427C150.287 247.266 150.779 243.751 149.83 240.271C148.469 235.263 144.698 231.198 140.208 227.974Z" fill="white"/>
<path d="M59.6969 139.791C62.8725 128.023 70.078 123.254 75.572 121.332C85.9359 117.694 97.9451 121.439 103.157 125.262C105.927 127.295 106.528 131.19 104.501 133.963C102.461 136.739 98.5664 137.337 95.7964 135.3C93.7282 133.79 85.9071 130.905 79.6939 133.083C75.7618 134.461 73.1558 137.717 71.7204 143.035C70.4663 147.692 71.3925 155.019 73.7455 159.043C76.1013 163.058 79.8925 166.59 84.7134 169.245C90.6188 172.502 98.8253 174.331 104.817 175.66C115.644 178.076 127.104 180.909 137.715 186.729C147.245 191.958 152.635 197.288 154.2 203.044C155.146 206.53 154.654 210.045 152.767 213.203C148.096 221.033 138.503 224.128 130.219 226.38C127.06 227.238 123.868 227.977 120.666 228.67C113.967 230.12 101.607 232.573 101.607 241.683C101.607 251.872 113.722 252.654 121.118 254.377C125.424 255.381 129.572 256.718 133.455 258.847C140.111 262.497 143.876 266.225 144.969 270.243C145.628 272.674 145.283 275.133 143.965 277.334C140.286 283.507 126.223 288.236 118.302 290.778L118.31 290.721C115.161 291.869 110.501 293.425 110.015 297.317C109.6 300.601 111.887 303.838 113.872 306.239C118.086 311.328 123.813 315.326 129.865 317.935C133.023 319.29 134.479 322.946 133.13 326.107C132.117 328.466 129.816 329.881 127.403 329.881C126.583 329.881 125.749 329.714 124.955 329.369C123.825 328.894 97.318 317.299 97.7868 297.279C98.0198 287.295 104.673 282.86 110.947 280.222C114.024 278.781 122.159 276.014 121.647 271.112C121.014 265.003 110.161 265.259 106.025 264.206C97.1282 261.93 86.3299 258.861 81.2932 250.43C79.4063 247.269 78.9116 243.754 79.8608 240.274C82.4209 230.856 93.524 224.724 101.894 221.364C108.858 218.571 116.213 217.095 123.491 215.389C127.601 214.423 132.67 212.873 134.672 208.765C137.913 202.103 131.338 196.819 126.212 194.302C113.176 187.905 98.0285 188.072 84.5753 182.831C75.7964 179.411 67.8171 173.56 63.0048 165.336C58.9547 158.424 57.5683 147.689 59.6969 139.791Z" fill="white"/>
<path d="M151.385 128.78C153.511 135.14 148.362 142.593 139.885 145.42C131.406 148.256 122.811 145.403 120.685 139.043C118.562 132.689 123.708 125.233 132.185 122.397C140.665 119.567 149.263 122.423 151.385 128.78Z" fill="white"/>
<path d="M78.3929 128.78C76.2672 135.14 81.4189 142.593 89.8958 145.42C98.3698 148.256 106.968 145.403 109.09 139.043C111.216 132.689 106.07 125.233 97.5874 122.397C89.1134 119.567 80.5185 122.423 78.3929 128.78Z" fill="white"/>
</g>
</g>
<defs>
<clipPath id="clip0_504_736">
<rect width="231" height="231" fill="white"/>
</clipPath>
</defs>
</svg>
